<svg xmlns="http://www.w3.org/2000/svg" height="528.74" viewBox="5.299 5.359 546.321 518.042" width="556.94"><path stroke-linejoin="round" d="M542.8 6.555c-6.48 2.802-16.811 10.509-31.9 23.01-58.548 48.51-81.136 65.386-133.09 99.445-54.783 35.91-70.835 45.285-162.75 95.019-36.316 19.65-37.845 21.327-25.168 27.602 6.412 3.174 36.098 22.15 48.78 31.18 13.184 9.39 12.072 13.209-5.36 18.43-14.722 4.41-13.658 4.74-24.797-7.677-12.257-13.664-38.406-18.274-48.278-8.51-5.363 5.305-3.248 7.464 41.274 42.081 9.083 7.084 12.083 6.768 15.416 16.958 6.685 20.443 2.975 30.821-18.34 51.32-11.237 10.807-38.69 12.28-52.177 2.795-17.697-12.444-57.03-35.097-61.842-35.615-7.355-.792-11.599 3.042-67.898 61.346-11.648 12.063-13.364 15.851-9.548 21.084 2.017 2.767 42.736 15.188 129.72 39.576 17.844 5.003 33.066 9.435 33.826 9.85 7.558 4.118 86.974 25.608 103.61 28.035 11.952 1.744 15.127 1.153 16.676-3.107 1.835-5.047 1.16-6.094-19.037-29.454-36.486-42.202-36.584-45.971-2.43-93.091 24.476-33.766 25.323-35.583 24.847-53.215-.358-13.271 1.747-17.807 13.269-28.615 8.746-8.205 11.11-18.582 6.728-29.54-6.83-17.085 2.872-41.59 19.56-49.401 8.985-5.293 19.696-2.484 29.708-2.063 12.767.537 23.705.774 24.306.523 4.38-1.823 14.247-19.336 19.177-34.043 6.649-19.834 16.186-25.016 29.598-16.08 7.774 5.18 11.376 6.407 14.777 5.032 4.657-1.883 57.404-39.077 59.708-42.103 1.424-1.87 30.468-93.047 36.128-113.41 6.412-23.076 6.314-32.03-4.485-27.36z" stroke="#fff" stroke-width="10.6" fill="none"/></svg>
