<svg xmlns="http://www.w3.org/2000/svg" height="424.51" viewBox="4.8 4.802 498.108 414.898" width="507.73"><path stroke-linejoin="round" d="M73.536 15.688c-14.435-4.001-28.622-6.725-45.138-9.077-31.402-4.473-31.4-4.803-.376 50.08 30.916 54.69 39.767 75.57 44.572 105.15 1.192 7.336 2.98 17.962 3.97 23.61.992 5.65 3.405 20.069 5.362 32.043 7.166 43.852 21.79 92.7 47.7 159.33 4.196 10.79 8.262 22.823 9.034 26.74s2.199 8.62 3.17 10.453c2.961 5.586 18.116 6.075 154.85 5.006 9.142-.072 43.638.124 76.66.434 88.734.834 117.19.565 125.92-18.435.135-.273.253-.551.37-.83l.046-.105c.137-.335.273-.67.389-1.012 3.064-8.32 3.028-19.896 2.69-35.957-.931-44.28-3.22-53.497-15.524-62.515-16.32-6.774-39.55-12.248-57.763-16.802a50107 50107 0 0 1-74.704-18.733c-94.998-23.976-93.05-23.703-118.8-16.688-13.052 3.557-14.936 4.513-27.672 14.036-22.255 16.642-40.402 17.203-53.542 1.658-7.067-8.36-25.54-75.477-24.858-90.313 1.225-26.642 27.751-39.966 54.426-27.337 63.772 30.194 81.594 36.096 104.25 34.529 29.688-2.054 60.418-20.777 65.781-36.966a7.8 7.8 0 0 0 .82-4.506c.045-2.067-.402-4.057-1.407-5.925-4.243-7.892-4.107-7.83-47.416-21.548-53.12-16.846-68.98-23.35-129.55-53.151-47.25-23.251-75.707-35.544-103.26-43.181z" stroke="#fff" stroke-width="9.6" fill="none"/></svg>
