<svg xmlns="http://www.w3.org/2000/svg" height="203.95" viewBox="2.9952521324157715 2.9256176948547363 393.53472900390625 198.0188446044922" width="399.5"><path stroke-linejoin="round" d="M14.303 54.81C7.044 70.946 7.237 70.277 4.425 89.132c-2.597 17.412-3.528 15.26 14.18 32.841 8.892 8.828 14.803 15.25 14.648 15.914-.142.612-2.896 5.013-6.12 9.777-9.86 14.567-9.404 15.862 7.321 20.846 25.015 7.454 48.885 10.688 76.968 10.428 27.962-.26 34.415 2.11 38.342 14.07 2.81 8.559-2.154 8.108 86.272 7.815 63.777-.212 81.519-.649 83.567-2.06 5.3-3.654 6.864-8.46 6.25-19.22-.782-13.713-1.935-13.523 28.795-4.761 10.39 2.962 13.986 3.52 16.71 2.595 6.481-2.2 21.473-29.916 25.06-46.326.972-4.442-4.052-8.254-28.193-21.391-38.955-21.2-38.148-21.026-79.69-17.087-15.765 1.495-19.49 3.079-28.33 12.05-11.014 11.175-45.853 15.004-66.093 7.263-27.63-10.58-57.44-48.047-51.74-65.044 2.81-8.374-13.11-23.074-42.03-38.817-15.58-8.48-32.6-6.343-48.635 6.107-8.331 6.468-11.137 7.526-23.662 8.926-5.45.43-11.04 25.692-13.742 31.752z" stroke="#fff" stroke-width="6" fill="none"/></svg>
