<svg xmlns="http://www.w3.org/2000/svg" height="282.28" viewBox="4.007688522338867 3.9967575073242188 423.75274658203125 274.2825927734375" width="431.76"><path stroke-linejoin="round" d="M4.017 271.88c.646 8.295 35.488 7.041 175.53 4.453 12.377-.229 23.86-.27 25.52-.093 13.322 1.424 100.54 2.228 145.19 1.338l52.003-1.037 10.787-5.193c5.932-2.857 11.75-6.356 12.928-7.776 3.95-4.764 3.206-6.37-21.921-47.254a244757 244757 0 0 1-39.976-65.064c-78.47-127.81-76.73-125.33-87.73-124.85-10.071.433-18.612 11.049-30.86 38.362-6.065 12.461-9.36 17.392-9.446 30.499-.168 25.024 10.566 36.802 43.884 48.15 27.605 9.403 44.83 34.219 37.75 54.389-2.98 8.487-5.712 8.925-56.11 8.996-116.27.165-159.78-.954-191.07-4.92l-.048-.008c-1.331-.668-2.43-1.53-2.903-2.674.53-1.779 2.707-4.71 6.809-9.638 12.94-15.548 12.809-15.542 95.728-5.3 57.897 7.152 61.142.922 16.44-31.573-40.6-29.52-40.53-29.42-36.96-49.77 3.4-19.413-.73-26.128-20.45-33.214-14.94-5.372-30.31-18.671-50.911-44.055-23.312-28.723-35.64-28.862-40.096-.451-16.672 106.31-23.197 153.18-23.266 178.19a32 32 0 0 0 .085 4.99c.312 8.309 1.492 13.927 3.36 18.798 7.41 19.318 7.617 17.58-3.571 30.076-5.965 6.662-10.95 11.37-10.696 14.616z" stroke="#fff" stroke-width="8" fill="none"/></svg>
